<mxfile host="app.diagrams.net" modified="2023-09-22T05:33:30.905Z" agent="Mozilla/5.0 (Windows NT 10.0; Win64; x64) AppleWebKit/537.36 (KHTML, like Gecko) Chrome/116.0.0.0 Safari/537.36" etag="RgFpKqjWD58klt0sjrEx" version="21.8.0" type="github">
  <diagram name="Page-1" id="4nzx5nU4g4x5sm47IQis">
    <mxGraphModel dx="2918" dy="942" grid="1" gridSize="10" guides="1" tooltips="1" connect="1" arrows="1" fold="1" page="1" pageScale="1" pageWidth="850" pageHeight="1100" math="0" shadow="0">
      <root>
        <mxCell id="0" />
        <mxCell id="1" parent="0" />
        <mxCell id="u3bSMrcnwY8FAXvbL1Ft-1" value="Operator Gudang&amp;nbsp;" style="shape=umlActor;verticalLabelPosition=bottom;verticalAlign=top;html=1;outlineConnect=0;" parent="1" vertex="1">
          <mxGeometry x="-425" y="550" width="30" height="60" as="geometry" />
        </mxCell>
        <mxCell id="u3bSMrcnwY8FAXvbL1Ft-2" value="Operator Produksi" style="shape=umlActor;verticalLabelPosition=bottom;verticalAlign=top;html=1;outlineConnect=0;" parent="1" vertex="1">
          <mxGeometry x="-430" y="255" width="30" height="60" as="geometry" />
        </mxCell>
        <mxCell id="u3bSMrcnwY8FAXvbL1Ft-6" value="Menerima permintaan/tugas" style="ellipse;whiteSpace=wrap;html=1;" parent="1" vertex="1">
          <mxGeometry x="-117.5" y="530" width="100" height="60" as="geometry" />
        </mxCell>
        <mxCell id="u3bSMrcnwY8FAXvbL1Ft-7" value="Menerima Barang&amp;nbsp;" style="ellipse;whiteSpace=wrap;html=1;" parent="1" vertex="1">
          <mxGeometry x="-117.5" y="400" width="110" height="50" as="geometry" />
        </mxCell>
        <mxCell id="u3bSMrcnwY8FAXvbL1Ft-8" value="Admin" style="shape=umlActor;verticalLabelPosition=bottom;verticalAlign=top;html=1;outlineConnect=0;" parent="1" vertex="1">
          <mxGeometry x="270" y="600" width="30" height="60" as="geometry" />
        </mxCell>
        <mxCell id="u3bSMrcnwY8FAXvbL1Ft-10" value="Melihat Estimasi Kedatangan" style="ellipse;whiteSpace=wrap;html=1;" parent="1" vertex="1">
          <mxGeometry x="-117.5" y="330" width="100" height="60" as="geometry" />
        </mxCell>
        <mxCell id="u3bSMrcnwY8FAXvbL1Ft-12" value="Mengupdate Data dan Informasi Robot" style="ellipse;whiteSpace=wrap;html=1;" parent="1" vertex="1">
          <mxGeometry x="-135" y="710" width="120" height="50" as="geometry" />
        </mxCell>
        <mxCell id="u3bSMrcnwY8FAXvbL1Ft-13" value="Mengelola Hak Akses&amp;nbsp;" style="ellipse;whiteSpace=wrap;html=1;" parent="1" vertex="1">
          <mxGeometry x="-117.5" y="790" width="97.5" height="40" as="geometry" />
        </mxCell>
        <mxCell id="u3bSMrcnwY8FAXvbL1Ft-15" value="Menambahkan Ketersediaan barang" style="ellipse;whiteSpace=wrap;html=1;" parent="1" vertex="1">
          <mxGeometry x="-127.5" y="620" width="110" height="60" as="geometry" />
        </mxCell>
        <mxCell id="u3bSMrcnwY8FAXvbL1Ft-16" value="" style="endArrow=none;html=1;rounded=0;exitX=1;exitY=0.3333333333333333;exitDx=0;exitDy=0;exitPerimeter=0;entryX=0;entryY=0.5;entryDx=0;entryDy=0;" parent="1" source="u3bSMrcnwY8FAXvbL1Ft-1" target="u3bSMrcnwY8FAXvbL1Ft-6" edge="1">
          <mxGeometry width="50" height="50" relative="1" as="geometry">
            <mxPoint x="-122.5" y="690" as="sourcePoint" />
            <mxPoint x="-72.5" y="640" as="targetPoint" />
          </mxGeometry>
        </mxCell>
        <mxCell id="u3bSMrcnwY8FAXvbL1Ft-17" value="" style="endArrow=none;html=1;rounded=0;exitX=1;exitY=0.3333333333333333;exitDx=0;exitDy=0;exitPerimeter=0;entryX=0;entryY=1;entryDx=0;entryDy=0;" parent="1" source="u3bSMrcnwY8FAXvbL1Ft-1" target="u3bSMrcnwY8FAXvbL1Ft-34" edge="1">
          <mxGeometry width="50" height="50" relative="1" as="geometry">
            <mxPoint x="-82.5" y="810" as="sourcePoint" />
            <mxPoint x="-132.5" y="600" as="targetPoint" />
          </mxGeometry>
        </mxCell>
        <mxCell id="u3bSMrcnwY8FAXvbL1Ft-18" value="" style="endArrow=none;html=1;rounded=0;exitX=1;exitY=0.3333333333333333;exitDx=0;exitDy=0;exitPerimeter=0;entryX=0;entryY=0.5;entryDx=0;entryDy=0;" parent="1" source="u3bSMrcnwY8FAXvbL1Ft-1" target="u3bSMrcnwY8FAXvbL1Ft-15" edge="1">
          <mxGeometry width="50" height="50" relative="1" as="geometry">
            <mxPoint x="-102.5" y="810" as="sourcePoint" />
            <mxPoint x="-52.5" y="760" as="targetPoint" />
          </mxGeometry>
        </mxCell>
        <mxCell id="u3bSMrcnwY8FAXvbL1Ft-26" value="" style="endArrow=none;html=1;rounded=0;exitX=1;exitY=0.5;exitDx=0;exitDy=0;entryX=0;entryY=0.3333333333333333;entryDx=0;entryDy=0;entryPerimeter=0;" parent="1" source="u3bSMrcnwY8FAXvbL1Ft-12" target="u3bSMrcnwY8FAXvbL1Ft-8" edge="1">
          <mxGeometry width="50" height="50" relative="1" as="geometry">
            <mxPoint x="802.5" y="650" as="sourcePoint" />
            <mxPoint x="280" y="630" as="targetPoint" />
          </mxGeometry>
        </mxCell>
        <mxCell id="u3bSMrcnwY8FAXvbL1Ft-29" value="Verifikasi Data&amp;nbsp;" style="ellipse;whiteSpace=wrap;html=1;" parent="1" vertex="1">
          <mxGeometry x="-117.5" y="860" width="90" height="50" as="geometry" />
        </mxCell>
        <mxCell id="u3bSMrcnwY8FAXvbL1Ft-32" value="" style="endArrow=none;html=1;rounded=0;exitX=1;exitY=0.5;exitDx=0;exitDy=0;entryX=0;entryY=0.3333333333333333;entryDx=0;entryDy=0;entryPerimeter=0;" parent="1" source="u3bSMrcnwY8FAXvbL1Ft-29" target="u3bSMrcnwY8FAXvbL1Ft-8" edge="1">
          <mxGeometry width="50" height="50" relative="1" as="geometry">
            <mxPoint x="732.5" y="900" as="sourcePoint" />
            <mxPoint x="300" y="640" as="targetPoint" />
          </mxGeometry>
        </mxCell>
        <mxCell id="u3bSMrcnwY8FAXvbL1Ft-34" value="Memperbarui tugas" style="ellipse;whiteSpace=wrap;html=1;" parent="1" vertex="1">
          <mxGeometry x="-117.5" y="470" width="100" height="50" as="geometry" />
        </mxCell>
        <mxCell id="u3bSMrcnwY8FAXvbL1Ft-46" value="" style="endArrow=none;html=1;rounded=0;exitX=1;exitY=0.3333333333333333;exitDx=0;exitDy=0;exitPerimeter=0;entryX=0;entryY=0.5;entryDx=0;entryDy=0;" parent="1" source="u3bSMrcnwY8FAXvbL1Ft-2" target="u3bSMrcnwY8FAXvbL1Ft-10" edge="1">
          <mxGeometry width="50" height="50" relative="1" as="geometry">
            <mxPoint x="-340" y="360" as="sourcePoint" />
            <mxPoint x="-290" y="310" as="targetPoint" />
          </mxGeometry>
        </mxCell>
        <mxCell id="u3bSMrcnwY8FAXvbL1Ft-54" value="" style="endArrow=none;html=1;rounded=0;exitX=1;exitY=0.3333333333333333;exitDx=0;exitDy=0;exitPerimeter=0;entryX=0;entryY=0.5;entryDx=0;entryDy=0;" parent="1" source="u3bSMrcnwY8FAXvbL1Ft-2" target="u3bSMrcnwY8FAXvbL1Ft-7" edge="1">
          <mxGeometry width="50" height="50" relative="1" as="geometry">
            <mxPoint x="-150" y="490" as="sourcePoint" />
            <mxPoint x="-100" y="440" as="targetPoint" />
          </mxGeometry>
        </mxCell>
        <mxCell id="JEZ1BTdIau2s5jRrZJul-5" value="" style="endArrow=none;html=1;rounded=0;" parent="1" edge="1">
          <mxGeometry width="50" height="50" relative="1" as="geometry">
            <mxPoint x="-350" y="1000" as="sourcePoint" />
            <mxPoint x="-350" y="100" as="targetPoint" />
          </mxGeometry>
        </mxCell>
        <mxCell id="JEZ1BTdIau2s5jRrZJul-6" value="" style="endArrow=none;html=1;rounded=0;" parent="1" edge="1">
          <mxGeometry width="50" height="50" relative="1" as="geometry">
            <mxPoint x="240" y="1000" as="sourcePoint" />
            <mxPoint x="240" y="100" as="targetPoint" />
          </mxGeometry>
        </mxCell>
        <mxCell id="JEZ1BTdIau2s5jRrZJul-7" value="" style="endArrow=none;html=1;rounded=0;" parent="1" edge="1">
          <mxGeometry width="50" height="50" relative="1" as="geometry">
            <mxPoint x="-350" y="99.52000000000001" as="sourcePoint" />
            <mxPoint x="240" y="99.52000000000001" as="targetPoint" />
          </mxGeometry>
        </mxCell>
        <mxCell id="JEZ1BTdIau2s5jRrZJul-8" value="" style="endArrow=none;html=1;rounded=0;" parent="1" edge="1">
          <mxGeometry width="50" height="50" relative="1" as="geometry">
            <mxPoint x="-350" y="1000" as="sourcePoint" />
            <mxPoint x="240" y="1000" as="targetPoint" />
            <Array as="points" />
          </mxGeometry>
        </mxCell>
        <mxCell id="JEZ1BTdIau2s5jRrZJul-9" value="&lt;font style=&quot;font-size: 15px;&quot;&gt;Sistem&amp;nbsp;Aplikasi Web-based Monitoring Robot AGV PT Sumitomo Wiring System Batam Indonesia&lt;/font&gt;" style="rounded=0;whiteSpace=wrap;html=1;" parent="1" vertex="1">
          <mxGeometry x="-290" y="70" width="470" height="60" as="geometry" />
        </mxCell>
        <mxCell id="JEZ1BTdIau2s5jRrZJul-11" value="" style="endArrow=none;html=1;rounded=0;exitX=1;exitY=0.3333333333333333;exitDx=0;exitDy=0;exitPerimeter=0;entryX=0;entryY=0.5;entryDx=0;entryDy=0;" parent="1" source="u3bSMrcnwY8FAXvbL1Ft-2" target="u3bSMrcnwY8FAXvbL1Ft-34" edge="1">
          <mxGeometry width="50" height="50" relative="1" as="geometry">
            <mxPoint x="-20" y="245" as="sourcePoint" />
            <mxPoint x="30" y="195" as="targetPoint" />
          </mxGeometry>
        </mxCell>
        <mxCell id="i4LCDO0L4q2WS0Fk0S58-1" value="Login" style="ellipse;whiteSpace=wrap;html=1;" parent="1" vertex="1">
          <mxGeometry x="-117.5" y="165" width="90" height="60" as="geometry" />
        </mxCell>
        <mxCell id="i4LCDO0L4q2WS0Fk0S58-7" value="Logout" style="ellipse;whiteSpace=wrap;html=1;" parent="1" vertex="1">
          <mxGeometry x="-132.5" y="930" width="105" height="40" as="geometry" />
        </mxCell>
        <mxCell id="i4LCDO0L4q2WS0Fk0S58-14" value="" style="endArrow=none;html=1;rounded=0;exitX=1;exitY=0.3333333333333333;exitDx=0;exitDy=0;exitPerimeter=0;" parent="1" source="u3bSMrcnwY8FAXvbL1Ft-2" target="i4LCDO0L4q2WS0Fk0S58-15" edge="1">
          <mxGeometry width="50" height="50" relative="1" as="geometry">
            <mxPoint x="-140" y="390" as="sourcePoint" />
            <mxPoint x="-120" y="180" as="targetPoint" />
          </mxGeometry>
        </mxCell>
        <mxCell id="i4LCDO0L4q2WS0Fk0S58-15" value="Mengirim permintaan/Tugas" style="ellipse;whiteSpace=wrap;html=1;" parent="1" vertex="1">
          <mxGeometry x="-122.5" y="260" width="110" height="50" as="geometry" />
        </mxCell>
        <mxCell id="zaVEfNoPWFunVD_1N59x-6" value="" style="endArrow=none;html=1;rounded=0;exitX=1;exitY=0.3333333333333333;exitDx=0;exitDy=0;exitPerimeter=0;entryX=0;entryY=0.5;entryDx=0;entryDy=0;" edge="1" parent="1" source="u3bSMrcnwY8FAXvbL1Ft-1" target="i4LCDO0L4q2WS0Fk0S58-1">
          <mxGeometry width="50" height="50" relative="1" as="geometry">
            <mxPoint x="-110" y="470" as="sourcePoint" />
            <mxPoint x="-60" y="420" as="targetPoint" />
          </mxGeometry>
        </mxCell>
        <mxCell id="zaVEfNoPWFunVD_1N59x-7" value="" style="endArrow=none;html=1;rounded=0;exitX=1;exitY=0.3333333333333333;exitDx=0;exitDy=0;exitPerimeter=0;entryX=0;entryY=0.5;entryDx=0;entryDy=0;" edge="1" parent="1" source="u3bSMrcnwY8FAXvbL1Ft-2" target="i4LCDO0L4q2WS0Fk0S58-1">
          <mxGeometry width="50" height="50" relative="1" as="geometry">
            <mxPoint x="-110" y="470" as="sourcePoint" />
            <mxPoint x="-60" y="420" as="targetPoint" />
          </mxGeometry>
        </mxCell>
        <mxCell id="zaVEfNoPWFunVD_1N59x-8" value="" style="endArrow=none;html=1;rounded=0;exitX=1;exitY=0.5;exitDx=0;exitDy=0;entryX=0;entryY=0.3333333333333333;entryDx=0;entryDy=0;entryPerimeter=0;" edge="1" parent="1" source="u3bSMrcnwY8FAXvbL1Ft-13" target="u3bSMrcnwY8FAXvbL1Ft-8">
          <mxGeometry width="50" height="50" relative="1" as="geometry">
            <mxPoint x="180" y="600" as="sourcePoint" />
            <mxPoint x="230" y="550" as="targetPoint" />
          </mxGeometry>
        </mxCell>
        <mxCell id="zaVEfNoPWFunVD_1N59x-9" value="" style="endArrow=none;html=1;rounded=0;exitX=1;exitY=0.5;exitDx=0;exitDy=0;" edge="1" parent="1" source="i4LCDO0L4q2WS0Fk0S58-7">
          <mxGeometry width="50" height="50" relative="1" as="geometry">
            <mxPoint x="-30" y="860" as="sourcePoint" />
            <mxPoint x="270" y="620" as="targetPoint" />
          </mxGeometry>
        </mxCell>
        <mxCell id="zaVEfNoPWFunVD_1N59x-10" value="" style="endArrow=none;html=1;rounded=0;entryX=0;entryY=0.5;entryDx=0;entryDy=0;" edge="1" parent="1" target="i4LCDO0L4q2WS0Fk0S58-7">
          <mxGeometry width="50" height="50" relative="1" as="geometry">
            <mxPoint x="-390" y="570" as="sourcePoint" />
            <mxPoint x="-50" y="520" as="targetPoint" />
          </mxGeometry>
        </mxCell>
        <mxCell id="zaVEfNoPWFunVD_1N59x-12" value="" style="endArrow=none;html=1;rounded=0;entryX=0;entryY=0.3333333333333333;entryDx=0;entryDy=0;entryPerimeter=0;exitX=1;exitY=0.5;exitDx=0;exitDy=0;" edge="1" parent="1" source="i4LCDO0L4q2WS0Fk0S58-1" target="u3bSMrcnwY8FAXvbL1Ft-8">
          <mxGeometry width="50" height="50" relative="1" as="geometry">
            <mxPoint x="-100" y="620" as="sourcePoint" />
            <mxPoint x="-50" y="570" as="targetPoint" />
          </mxGeometry>
        </mxCell>
        <mxCell id="zaVEfNoPWFunVD_1N59x-13" value="" style="endArrow=none;html=1;rounded=0;entryX=1;entryY=0.3333333333333333;entryDx=0;entryDy=0;entryPerimeter=0;exitX=0;exitY=0.5;exitDx=0;exitDy=0;" edge="1" parent="1" source="i4LCDO0L4q2WS0Fk0S58-7" target="u3bSMrcnwY8FAXvbL1Ft-2">
          <mxGeometry width="50" height="50" relative="1" as="geometry">
            <mxPoint x="-100" y="620" as="sourcePoint" />
            <mxPoint x="-50" y="570" as="targetPoint" />
          </mxGeometry>
        </mxCell>
      </root>
    </mxGraphModel>
  </diagram>
</mxfile>
